<?xml version="1.0" encoding="UTF-8"?>
<!--Generator: Apple Native CoreSVG 175.5-->
<!DOCTYPE svg
PUBLIC "-//W3C//DTD SVG 1.1//EN"
       "http://www.w3.org/Graphics/SVG/1.1/DTD/svg11.dtd">
<svg version="1.1" xmlns="http://www.w3.org/2000/svg" xmlns:xlink="http://www.w3.org/1999/xlink" width="34.1592" height="34.1963">
 <g>
  <rect height="34.1963" opacity="0" width="34.1592" x="0" y="0"/>
  <path d="M5.82617 34.1963L28.333 34.1963C32.2295 34.1963 34.1592 32.2666 34.1592 28.4443L34.1592 5.78906C34.1592 1.9668 32.2295 0.0371094 28.333 0.0371094L5.82617 0.0371094C1.94824 0.0371094 0 1.94824 0 5.78906L0 28.4443C0 32.2852 1.94824 34.1963 5.82617 34.1963ZM5.86328 31.209C4.00781 31.209 2.9873 30.2256 2.9873 28.2959L2.9873 5.9375C2.9873 4.00781 4.00781 3.02441 5.86328 3.02441L28.2959 3.02441C30.1328 3.02441 31.1719 4.00781 31.1719 5.9375L31.1719 28.2959C31.1719 30.2256 30.1328 31.209 28.2959 31.209Z" fill="#000000"/>
  <path d="M17.126 5.54785C16.7178 5.54785 16.3838 5.7334 16.0312 6.08594L10.6689 11.4297C10.4277 11.6709 10.2793 12.0049 10.2793 12.3945C10.2793 13.1553 10.873 13.7305 11.6338 13.7305C12.042 13.7305 12.376 13.582 12.6357 13.3223L14.0088 11.9121L15.8828 9.66699L15.7344 13.6006L15.7344 20.5771L15.8828 24.5107L14.0088 22.2656L12.6357 20.8555C12.376 20.5771 12.042 20.4473 11.6338 20.4473C10.873 20.4473 10.2793 21.0225 10.2793 21.7832C10.2793 22.1543 10.4277 22.5068 10.6689 22.748L16.0312 28.0918C16.3838 28.4443 16.7178 28.6299 17.126 28.6299C17.5156 28.6299 17.8311 28.4443 18.2021 28.0918L23.583 22.748C23.8242 22.5068 23.9541 22.1543 23.9541 21.7832C23.9541 21.0225 23.3789 20.4473 22.6182 20.4473C22.21 20.4473 21.876 20.5957 21.6348 20.8555L20.2432 22.2656L18.3691 24.4922L18.5176 20.5771L18.5176 13.6006L18.3691 9.68555L20.2432 11.9121L21.6348 13.3223C21.876 13.5635 22.21 13.7305 22.6182 13.7305C23.3789 13.7305 23.9541 13.1553 23.9541 12.3945C23.9541 12.0049 23.8242 11.6709 23.583 11.4297L18.2021 6.08594C17.8311 5.7334 17.5156 5.54785 17.126 5.54785Z" fill="#000000"/>
 </g>
</svg>
