<svg width="43" height="43" viewBox="0 0 43 43" fill="none" xmlns="http://www.w3.org/2000/svg">
<circle cx="21.5" cy="21.5" r="21.5" transform="rotate(-90 21.5 21.5)" fill="white" fill-opacity="0.4"/>
<g clip-path="url(#clip0_1_38)">
<path d="M12 21.5C12 22.0145 12.3621 22.3806 12.8851 22.3806L26.1318 22.3806L29.1292 22.2817L28.928 21.7276L24.9751 25.2698L22.7221 27.5257C22.5611 27.6741 22.4806 27.9116 22.4806 28.1491C22.4806 28.6438 22.8629 29 23.3557 29C23.5971 29 23.8084 28.9109 24.0095 28.7229L30.6983 22.1629C30.8994 21.9749 31 21.7474 31 21.5C31 21.2526 30.8994 21.0251 30.6983 20.8371L24.0095 14.2671C23.8084 14.0792 23.5971 14 23.3557 14C22.8629 14 22.4806 14.3562 22.4806 14.8509C22.4806 15.0884 22.5611 15.316 22.7221 15.4743L24.9751 17.7302L28.928 21.2823L29.1292 20.7183L26.1318 20.6194H12.8851C12.3621 20.6194 12 20.9855 12 21.5Z" fill="black" fill-opacity="0.85"/>
</g>
<defs>
<clipPath id="clip0_1_38">
<rect width="18.9465" height="23.6081" fill="white" transform="matrix(0 -1 1 0 9.21429 30.7143)"/>
</clipPath>
</defs>
</svg>
