<?xml version="1.0" encoding="UTF-8"?>
<!--Generator: Apple Native CoreSVG 175.5-->
<!DOCTYPE svg
PUBLIC "-//W3C//DTD SVG 1.1//EN"
       "http://www.w3.org/Graphics/SVG/1.1/DTD/svg11.dtd">
<svg version="1.1" xmlns="http://www.w3.org/2000/svg" xmlns:xlink="http://www.w3.org/1999/xlink" width="39.1504" height="47.4221">
 <g>
  <rect height="47.4221" opacity="0" width="39.1504" x="0" y="0"/>
  <path d="M15.623 23.5162C19.6123 23.5162 23.0449 19.9537 23.0449 15.315C23.0449 10.732 19.5938 7.33653 15.623 7.33653C11.6523 7.33653 8.20117 10.8063 8.20117 15.3522C8.20117 19.9537 11.6523 23.5162 15.623 23.5162ZM3.17285 40.6979L20.1318 40.6979C20.0762 40.2711 20.0391 39.8072 20.0391 39.3248L20.0391 32.7008C20.0391 30.6041 21.1523 29.2496 22.8408 28.3033C20.7998 27.4127 18.3506 26.8375 15.623 26.8375C5.99316 26.8375 0 33.443 0 38.2301C0 39.7701 1.1875 40.6979 3.17285 40.6979Z" fill="#003f90" fill-opacity="0.5"/>
  <path d="M23.1377 39.3805C23.1377 42.943 25.2344 44.2418 30.2812 47.192C30.7266 47.4703 31.4316 47.526 32.0068 47.192C37.0537 44.2233 39.1504 42.943 39.1504 39.3805L39.1504 32.7008C39.1504 31.6246 38.7422 30.9195 37.6475 30.4557C36.5527 30.0104 33.1201 28.7858 32.0625 28.4147C31.4502 28.2106 30.7637 28.2106 30.0771 28.4889C29.168 28.8229 25.7354 30.0104 24.6592 30.4557C23.5645 30.9195 23.1377 31.6246 23.1377 32.7008Z" fill="#003f90"/>
  <path d="M30.0215 42.943C29.7246 42.943 29.335 42.8131 29.0938 42.5348L25.958 39.1022C25.7354 38.8609 25.6611 38.527 25.6611 38.2486C25.6611 37.5992 26.1621 37.0797 26.8115 37.0797C27.2012 37.0797 27.498 37.2652 27.7021 37.4879L29.9844 39.9557L34.5117 33.6842C34.7158 33.3688 35.0684 33.1647 35.4766 33.1647C36.1074 33.1647 36.6455 33.6656 36.6455 34.315C36.6455 34.5191 36.5713 34.7789 36.4043 35.0016L31.0049 42.4977C30.8008 42.7574 30.4297 42.943 30.0215 42.943Z" fill="#fff"/>
 </g>
</svg>
