<svg width="34" height="11" viewBox="0 0 34 11" fill="none" xmlns="http://www.w3.org/2000/svg">
<g clip-path="url(#clip0_412_45)">
<path d="M1.16895 3.50684L13.8418 8.46094C14.6953 8.79492 15.7158 9.20312 16.5508 9.20312C17.3672 9.20312 18.4062 8.79492 19.2598 8.46094L31.9141 3.50684C32.6191 3.22852 33.083 2.59766 33.083 1.91113C33.083 0.816406 32.2852 0 31.209 0C30.6523 0 29.9102 0.31543 29.4463 0.482422L15.2334 6.06738H17.8496L3.63672 0.482422C3.17285 0.31543 2.44922 0 1.87402 0C0.797852 0 0 0.816406 0 1.91113C0 2.59766 0.463867 3.22852 1.16895 3.50684Z" fill="white"/>
</g>
<defs>
<clipPath id="clip0_412_45">
<rect width="33.083" height="10.1494" fill="white"/>
</clipPath>
</defs>
</svg>
