<svg width="43" height="43" viewBox="0 0 43 43" fill="none" xmlns="http://www.w3.org/2000/svg">
<g clip-path="url(#clip0_387_76)">
<circle cx="21.5" cy="21.5" r="21.5" fill="gray" fill-opacity="0.4"/>
<path d="M13.2937 29.7062C13.691 30.0922 14.3494 30.0922 14.7353 29.7062L22 22.4404L29.2647 29.7062C29.6506 30.0922 30.3204 30.1036 30.7063 29.7062C31.0922 29.3089 31.0922 28.6617 30.7063 28.2758L23.4416 20.9986L30.7063 13.7327C31.0922 13.3467 31.1035 12.6883 30.7063 12.3023C30.309 11.9049 29.6506 11.9049 29.2647 12.3023L22 19.5681L14.7353 12.3023C14.3494 11.9049 13.6797 11.8936 13.2937 12.3023C12.9078 12.6996 12.9078 13.3467 13.2937 13.7327L20.5584 20.9986L13.2937 28.2758C12.9078 28.6617 12.8964 29.3202 13.2937 29.7062Z" fill="black" fill-opacity="0.85"/>
</g>
<defs>
<clipPath id="clip0_387_76">
<rect width="43" height="43" fill="white"/>
</clipPath>
</defs>
</svg>
