<svg width="38" height="38" viewBox="0 0 38 38" fill="none" xmlns="http://www.w3.org/2000/svg">
<g clip-path="url(#clip0_423_37)">
<g clip-path="url(#clip1_423_37)">
<path d="M0.620086 37.4038C1.4588 38.2185 2.84868 38.2185 3.66344 37.4038L19.0001 22.0672L34.3367 37.4038C35.1513 38.2185 36.5653 38.2425 37.38 37.4038C38.1948 36.5651 38.1948 35.1991 37.38 34.3844L22.0434 19.0238L37.38 3.68724C38.1948 2.87248 38.2187 1.4826 37.38 0.667843C36.5412 -0.170877 35.1513 -0.170877 34.3367 0.667843L19.0001 16.0044L3.66344 0.667843C2.84868 -0.170877 1.43485 -0.194841 0.620086 0.667843C-0.194671 1.50656 -0.194671 2.87248 0.620086 3.68724L15.9566 19.0238L0.620086 34.3844C-0.194671 35.1991 -0.218633 36.589 0.620086 37.4038Z" fill="white"/>
</g>
</g>
<defs>
<clipPath id="clip0_423_37">
<rect width="38" height="38" fill="white"/>
</clipPath>
<clipPath id="clip1_423_37">
<rect width="38" height="38.024" fill="white"/>
</clipPath>
</defs>
</svg>
