<?xml version="1.0" encoding="UTF-8"?>
<!--Generator: Apple Native CoreSVG 175.5-->
<!DOCTYPE svg
PUBLIC "-//W3C//DTD SVG 1.1//EN"
       "http://www.w3.org/Graphics/SVG/1.1/DTD/svg11.dtd">
<svg version="1.1" xmlns="http://www.w3.org/2000/svg" xmlns:xlink="http://www.w3.org/1999/xlink" width="44.29" height="42.1099">
 <g>
  <rect height="42.1099" opacity="0" width="44.29" x="0" y="0"/>
  <path d="M26.9229 35.9822L17.3486 35.9822L17.3486 23.7175C17.3486 22.864 17.9238 22.3074 18.7773 22.3074L25.5127 22.3074C26.3662 22.3074 26.9229 22.864 26.9229 23.7175ZM5.78906 34.8689C5.78906 37.448 7.34766 38.9695 9.96387 38.9695L34.3633 38.9695C36.9795 38.9695 38.5195 37.448 38.5195 34.8689L38.5195 20.1736L23.2676 7.3894C22.5625 6.79565 21.7275 6.81421 21.041 7.3894L5.78906 20.1736ZM0 18.3181C0 19.0789 0.59375 19.8025 1.5957 19.8025C2.11523 19.8025 2.54199 19.5242 2.93164 19.2087L21.5049 3.6228C21.9131 3.25171 22.4141 3.25171 22.8223 3.6228L41.3955 19.2087C41.7666 19.5242 42.1934 19.8025 42.7129 19.8025C43.585 19.8025 44.29 19.2644 44.29 18.3738C44.29 17.8171 44.1045 17.446 43.7148 17.1121L24.3994 0.876709C23.0264-0.292236 21.3193-0.292236 19.9277 0.876709L0.59375 17.1121C0.185547 17.446 0 17.8914 0 18.3181ZM33.8623 9.94995L38.5195 13.8835L38.5195 5.31128C38.5195 4.49487 38 3.97534 37.1836 3.97534L35.1982 3.97534C34.4004 3.97534 33.8623 4.49487 33.8623 5.31128Z" fill="#000000"/>
 </g>
</svg>
