<?xml version="1.0" encoding="UTF-8"?>
<!--Generator: Apple Native CoreSVG 175.5-->
<!DOCTYPE svg
PUBLIC "-//W3C//DTD SVG 1.1//EN"
       "http://www.w3.org/Graphics/SVG/1.1/DTD/svg11.dtd">
<svg version="1.1" xmlns="http://www.w3.org/2000/svg" xmlns:xlink="http://www.w3.org/1999/xlink" width="37.8516" height="37.8701">
 <g>
  <rect height="37.8701" opacity="0" width="37.8516" x="0" y="0"/>
  <path d="M19.7051 33.0088C23.1191 33.0088 26.0322 27.7207 26.793 26.459C27.7393 24.9375 27.2939 23.416 27.2939 22.4697C27.2939 21.8018 29.2607 20.3916 29.2607 18.7773C29.2607 17.1445 25.457 15.8457 25.457 14.918C25.457 14.3242 25.9023 13.8047 26.3848 13.8047C27.2012 13.8047 29.2051 16.3838 30.3369 16.3838C31.0791 16.3838 31.1348 15.7344 31.543 15.7344C32.4893 15.7344 32.6377 21.0596 35.5508 22.3213C36.3486 21.3936 36.8311 20.3359 36.8311 18.9258C36.8311 9.25879 28.7969 1.00195 18.9072 1.02051C13.3965 1.03906 11.3555 3.1543 11.3555 5.00977C11.3555 7.44043 9.37012 7.99707 9.37012 9.46289C9.37012 10.3906 10.0195 11.0029 11.0215 11.0029C13.1738 11.0029 13.1553 8.66504 14.25 8.66504C15.0664 8.68359 15.8271 9.9082 17.1816 9.9082C17.7939 9.9082 18.0908 9.51855 18.1279 8.96191C18.165 8.7207 18.2764 8.60938 18.499 8.60938C19.6865 8.60938 21.0039 9.94531 21.0039 10.7617C21.0039 11.541 20.707 12.1348 20.2246 12.1348C19.3896 12.1348 17.3115 11.1514 15.4561 11.1514C11.2998 11.1514 7.83008 14.1016 7.83008 17.627C7.83008 20.6885 9.62988 22.4697 12.7842 22.4697C14.6953 22.4697 16.1055 23.7686 16.1055 25.5312C16.1055 28.2773 15.8086 33.0088 19.7051 33.0088ZM24.3809 7.7373C23.6943 7.7373 23.416 8.08984 22.8223 8.08984C22.2471 8.08984 21.8203 7.68164 21.8203 7.10645C21.8203 6.21582 22.7109 5.71484 24.2324 5.71484C25.5312 5.71484 26.5146 6.38281 26.5146 7.25488C26.5146 7.7373 26.1992 8.12695 25.791 8.12695C25.123 8.12695 24.7705 7.7373 24.3809 7.7373ZM18.9258 37.8516C29.2793 37.8516 37.8516 29.2607 37.8516 18.9258C37.8516 8.57227 29.2607 0 18.9072 0C8.57227 0 0 8.57227 0 18.9258C0 29.2607 8.59082 37.8516 18.9258 37.8516ZM18.9258 35.3281C9.96387 35.3281 2.52344 27.8877 2.52344 18.9258C2.52344 9.96387 9.94531 2.52344 18.9072 2.52344C27.8691 2.52344 35.3281 9.96387 35.3281 18.9258C35.3281 27.8877 27.8877 35.3281 18.9258 35.3281Z" fill="#000" fill-opacity="0.85"/>
 </g>
</svg>
