<?xml version="1.0" encoding="UTF-8"?>
<!--Generator: Apple Native CoreSVG 175.5-->
<!DOCTYPE svg
PUBLIC "-//W3C//DTD SVG 1.1//EN"
       "http://www.w3.org/Graphics/SVG/1.1/DTD/svg11.dtd">
<svg version="1.1" xmlns="http://www.w3.org/2000/svg" xmlns:xlink="http://www.w3.org/1999/xlink" width="43.6777" height="39.5771">
 <g>
  <rect height="39.5771" opacity="0" width="43.6777" x="0" y="0"/>
  <path d="M29.9102 39.5771L40.6162 39.5771C42.4902 39.5771 43.6777 38.2598 43.6777 36.2002L43.6777 12.5244C43.6777 10.4648 42.4902 9.14746 40.6162 9.14746L30.8193 9.14746L30.8193 36.2002C30.8193 37.4434 30.5225 38.5752 29.9102 39.5771ZM35.0312 18.5361L35.0312 15.5674C35.0312 15.1777 35.2725 14.918 35.6807 14.918L38.7607 14.918C39.1504 14.918 39.4102 15.1777 39.4102 15.5674L39.4102 18.5361C39.4102 18.9258 39.1504 19.2041 38.7607 19.2041L35.6807 19.2041C35.2725 19.2041 35.0312 18.9258 35.0312 18.5361ZM35.0312 25.8467L35.0312 22.8779C35.0312 22.4883 35.2725 22.2285 35.6807 22.2285L38.7607 22.2285C39.1504 22.2285 39.4102 22.4883 39.4102 22.8779L39.4102 25.8467C39.4102 26.2363 39.1504 26.4961 38.7607 26.4961L35.6807 26.4961C35.2725 26.4961 35.0312 26.2363 35.0312 25.8467ZM35.0312 33.1572L35.0312 30.1885C35.0312 29.7988 35.2725 29.5205 35.6807 29.5205L38.7607 29.5205C39.1504 29.5205 39.4102 29.7988 39.4102 30.1885L39.4102 33.1572C39.4102 33.5469 39.1504 33.8066 38.7607 33.8066L35.6807 33.8066C35.2725 33.8066 35.0312 33.5469 35.0312 33.1572Z" fill="#000000"/>
  <path d="M0 36.2002C0 38.2598 1.1875 39.5771 3.08008 39.5771L25.1973 39.5771C27.0898 39.5771 28.2773 38.2598 28.2773 36.2002L28.2773 3.39551C28.2773 1.33594 27.0898 0.0185547 25.1973 0.0185547L3.08008 0.0185547C1.1875 0.0185547 0 1.33594 0 3.39551ZM7.71875 36.5898L7.71875 30.5596C7.71875 29.7061 8.27539 29.1494 9.12891 29.1494L19.3154 29.1494C20.1689 29.1494 20.7256 29.7061 20.7256 30.5596L20.7256 36.5898ZM7.10645 9.98242L7.10645 6.38281C7.10645 5.91895 7.40332 5.58496 7.86719 5.58496L11.5781 5.58496C12.042 5.58496 12.376 5.91895 12.376 6.38281L12.376 9.98242C12.376 10.4648 12.042 10.7803 11.5781 10.7803L7.86719 10.7803C7.40332 10.7803 7.10645 10.4648 7.10645 9.98242ZM16.0684 9.98242L16.0684 6.38281C16.0684 5.91895 16.3652 5.58496 16.8477 5.58496L20.54 5.58496C21.0039 5.58496 21.3379 5.91895 21.3379 6.38281L21.3379 9.98242C21.3379 10.4648 21.0039 10.7803 20.54 10.7803L16.8477 10.7803C16.3652 10.7803 16.0684 10.4648 16.0684 9.98242ZM7.10645 17.5527L7.10645 13.9531C7.10645 13.4893 7.40332 13.1553 7.86719 13.1553L11.5781 13.1553C12.042 13.1553 12.376 13.4893 12.376 13.9531L12.376 17.5527C12.376 18.0352 12.042 18.3506 11.5781 18.3506L7.86719 18.3506C7.40332 18.3506 7.10645 18.0352 7.10645 17.5527ZM16.0684 17.5527L16.0684 13.9531C16.0684 13.4893 16.3652 13.1553 16.8477 13.1553L20.54 13.1553C21.0039 13.1553 21.3379 13.4893 21.3379 13.9531L21.3379 17.5527C21.3379 18.0352 21.0039 18.3506 20.54 18.3506L16.8477 18.3506C16.3652 18.3506 16.0684 18.0352 16.0684 17.5527ZM7.10645 25.123L7.10645 21.5234C7.10645 21.041 7.40332 20.7256 7.86719 20.7256L11.5781 20.7256C12.042 20.7256 12.376 21.041 12.376 21.5234L12.376 25.123C12.376 25.5869 12.042 25.9209 11.5781 25.9209L7.86719 25.9209C7.40332 25.9209 7.10645 25.5869 7.10645 25.123ZM16.0684 25.123L16.0684 21.5234C16.0684 21.041 16.3652 20.7256 16.8477 20.7256L20.54 20.7256C21.0039 20.7256 21.3379 21.041 21.3379 21.5234L21.3379 25.123C21.3379 25.5869 21.0039 25.9209 20.54 25.9209L16.8477 25.9209C16.3652 25.9209 16.0684 25.5869 16.0684 25.123Z" fill="#000000"/>
 </g>
</svg>
