<?xml version="1.0" encoding="UTF-8"?>
<!--Generator: Apple Native CoreSVG 175.5-->
<!DOCTYPE svg
PUBLIC "-//W3C//DTD SVG 1.1//EN"
       "http://www.w3.org/Graphics/SVG/1.1/DTD/svg11.dtd">
<svg version="1.1" xmlns="http://www.w3.org/2000/svg" xmlns:xlink="http://www.w3.org/1999/xlink" width="37.8516" height="37.8701">
 <g>
  <rect height="37.8701" opacity="0" width="37.8516" x="0" y="0"/>
  <path d="M18.9258 37.8701C29.2793 37.8701 37.8516 29.2979 37.8516 18.9443C37.8516 8.60938 29.2607 0.0185547 18.9072 0.0185547C8.57227 0.0185547 0 8.60938 0 18.9443C0 29.2979 8.59082 37.8701 18.9258 37.8701Z" fill="#003f90" fill-opacity="0.25"/>
  <path d="M18.9258 26.5146C18.499 26.5146 18.1094 26.5146 17.7383 26.4961C17.5342 26.4775 17.4229 26.5332 17.2188 26.6631C15.3262 27.8135 13.415 28.6113 12.3574 28.6113C11.5225 28.6113 11.374 27.9434 11.9121 27.3311C12.3018 26.8857 12.8584 26.292 13.1738 25.6611C13.2852 25.4385 13.2852 25.2158 13.0439 25.1045C10.2422 23.4717 8.34961 20.874 8.34961 17.8867C8.34961 13.0996 12.9883 9.24023 18.9258 9.24023C24.8633 9.24023 29.502 13.0996 29.502 17.8867C29.502 22.6553 24.8633 26.5146 18.9258 26.5146Z" fill="#003f90"/>
 </g>
</svg>
