<?xml version="1.0" encoding="UTF-8"?>
<!--Generator: Apple Native CoreSVG 175.5-->
<!DOCTYPE svg
PUBLIC "-//W3C//DTD SVG 1.1//EN"
       "http://www.w3.org/Graphics/SVG/1.1/DTD/svg11.dtd">
<svg version="1.1" xmlns="http://www.w3.org/2000/svg" xmlns:xlink="http://www.w3.org/1999/xlink" width="37.8516" height="37.8701">
 <g>
  <rect height="37.8701" opacity="0" width="37.8516" x="0" y="0"/>
  <path d="M18.9258 37.8516C29.2793 37.8516 37.8516 29.2607 37.8516 18.9258C37.8516 8.57227 29.2607 0 18.9072 0C8.57227 0 0 8.57227 0 18.9258C0 29.2607 8.59082 37.8516 18.9258 37.8516Z" fill="#000000"/>
  <path d="M14.8252 27.7021C13.8418 27.7021 13.3037 26.9785 13.3037 25.958L13.3037 11.7637C13.3037 10.7246 13.8232 10.0195 14.8066 10.0195L20.1504 10.0195C23.8613 10.0195 26.3848 12.3945 26.3848 15.9199C26.3848 19.4453 23.8799 21.7832 20.1318 21.7832L16.3838 21.7832L16.3838 25.958C16.3838 27.0156 15.8457 27.7021 14.8252 27.7021ZM16.3838 19.4453L19.7236 19.4453C21.9688 19.4453 23.3418 18.0908 23.3418 15.9199C23.3418 13.7305 21.9502 12.376 19.7236 12.376L16.3838 12.376Z" fill="#fff"/>
 </g>
</svg>
