<?xml version="1.0" encoding="UTF-8"?>
<!--Generator: Apple Native CoreSVG 175.5-->
<!DOCTYPE svg
PUBLIC "-//W3C//DTD SVG 1.1//EN"
       "http://www.w3.org/Graphics/SVG/1.1/DTD/svg11.dtd">
<svg version="1.1" xmlns="http://www.w3.org/2000/svg" xmlns:xlink="http://www.w3.org/1999/xlink" width="43.752" height="34.1592">
 <g>
  <rect height="34.1592" opacity="0" width="43.752" x="0" y="0"/>
  <path d="M5.86328 31.1904C4.06348 31.1904 2.9873 30.1143 2.9873 28.2959L2.9873 27.1641L8.68359 22.1914C9.5 21.4678 10.3906 21.0967 11.207 21.0967C12.1162 21.0967 13.0625 21.4678 13.8789 22.2285L17.4229 25.4199L26.292 17.5527C27.2012 16.7363 28.2217 16.3652 29.2793 16.3652C30.2998 16.3652 31.3574 16.7549 32.2295 17.5713L40.7646 25.4756L40.7646 28.333C40.7646 30.1143 39.6699 31.1904 37.9072 31.1904ZM13.916 17.5527C11.3926 17.5527 9.33301 15.4932 9.33301 12.9697C9.33301 10.4648 11.3926 8.38672 13.916 8.38672C16.4209 8.38672 18.4805 10.4648 18.4805 12.9697C18.4805 15.4932 16.4209 17.5527 13.916 17.5527ZM5.82617 34.1592L37.9258 34.1592C41.8223 34.1592 43.752 32.248 43.752 28.4258L43.752 5.75195C43.752 1.92969 41.8223 0 37.9258 0L5.82617 0C1.94824 0 0 1.92969 0 5.75195L0 28.4258C0 32.248 1.94824 34.1592 5.82617 34.1592Z" fill="#ffffff" fill-opacity="0.85"/>
 </g>
</svg>
