<?xml version="1.0" encoding="UTF-8"?>
<!--Generator: Apple Native CoreSVG 175.5-->
<!DOCTYPE svg
PUBLIC "-//W3C//DTD SVG 1.1//EN"
       "http://www.w3.org/Graphics/SVG/1.1/DTD/svg11.dtd">
<svg version="1.1" xmlns="http://www.w3.org/2000/svg" xmlns:xlink="http://www.w3.org/1999/xlink" width="48.4463" height="43.4736">
 <g>
  <rect height="43.4736" opacity="0" width="48.4463" x="0" y="0"/>
  <path d="M31.8213 42.1191C37.9629 42.1191 40.542 41.3398 42.9912 39.0576C46.4238 35.9219 48.4463 31.3574 48.4463 26.5332C48.4463 22.5625 47.0918 18.8701 44.457 15.8457C43.8262 15.0664 43.1768 15.0293 42.4902 15.4932C40.0039 17.4043 37.2578 18.3877 31.8213 18.3877C26.3662 18.3877 23.6201 17.4043 21.1338 15.4932C20.4658 15.0293 19.7979 15.0664 19.167 15.8457C16.5508 18.8701 15.1777 22.5625 15.1777 26.5332C15.1777 31.3574 17.2002 35.9219 20.6328 39.0576C23.082 41.3398 25.6797 42.1191 31.8213 42.1191Z" fill="#003f90" fill-opacity="0.5"/>
  <path d="M4.26758 32.4521L13.2666 32.4521C12.8584 31.1533 12.6172 29.9473 12.4502 28.4629C8.70215 28.2773 5.7334 25.1973 5.7334 21.3936C5.7334 17.4971 8.8877 14.3242 12.8027 14.3242C13.9902 14.3242 15.1221 14.6396 16.0869 15.1592C18.3877 12.1533 21.4121 10.5205 25.5684 9.7041L25.5684 4.30469C25.5684 1.48438 24.1025 0 21.3008 0L4.26758 0C1.46582 0 0 1.48438 0 4.30469L0 28.1475C0 30.9678 1.46582 32.4521 4.26758 32.4521ZM12.7842 11.8008C10.6504 11.8008 8.8877 10.0566 8.8877 7.92285C8.8877 5.78906 10.6318 4.04492 12.7842 4.04492C14.9365 4.04492 16.6807 5.78906 16.6807 7.92285C16.6807 10.0566 14.918 11.8008 12.7842 11.8008ZM12.7842 9.88965C13.8789 9.88965 14.751 8.99902 14.751 7.92285C14.751 6.84668 13.8789 5.97461 12.7842 5.97461C11.6895 5.97461 10.8174 6.84668 10.8174 7.92285C10.8174 8.99902 11.6895 9.88965 12.7842 9.88965ZM9.79688 21.375C9.79688 22.9707 11.0029 24.2324 12.5244 24.3438C12.7471 22.3398 13.2852 20.4287 14.1016 18.666C13.7119 18.4805 13.2666 18.3877 12.8027 18.3877C11.1328 18.3877 9.79688 19.7236 9.79688 21.375ZM31.8213 16.0498C36.46 16.0498 39.7441 15.1221 39.7441 13.8975C39.7441 12.6543 36.46 11.7451 31.8213 11.7451C27.1641 11.7451 23.8799 12.6543 23.8799 13.8975C23.8799 15.1221 27.1641 16.0498 31.8213 16.0498Z" fill="#003f90"/>
 </g>
</svg>
