<?xml version="1.0" encoding="UTF-8"?>
<!--Generator: Apple Native CoreSVG 175.5-->
<!DOCTYPE svg
PUBLIC "-//W3C//DTD SVG 1.1//EN"
       "http://www.w3.org/Graphics/SVG/1.1/DTD/svg11.dtd">
<svg version="1.1" xmlns="http://www.w3.org/2000/svg" xmlns:xlink="http://www.w3.org/1999/xlink" width="37.8516" height="37.8701">
 <g>
  <rect height="37.8701" opacity="0" width="37.8516" x="0" y="0"/>
  <path d="M18.9258 37.8516C29.2793 37.8516 37.8516 29.2607 37.8516 18.9258C37.8516 8.57227 29.2607 0 18.9072 0C8.57227 0 0 8.57227 0 18.9258C0 29.2607 8.59082 37.8516 18.9258 37.8516Z" fill="#003170"/>
  <path d="M16.8477 27.999C16.2168 27.999 15.6973 27.7393 15.2148 27.0898L10.5576 21.375C10.2793 21.0039 10.1123 20.5957 10.1123 20.1689C10.1123 19.334 10.7617 18.6475 11.5967 18.6475C12.1348 18.6475 12.543 18.8145 13.0068 19.4268L16.7734 24.2881L24.6963 11.5596C25.0488 11.0029 25.5312 10.7061 26.0137 10.7061C26.8301 10.7061 27.5908 11.2627 27.5908 12.1348C27.5908 12.543 27.3496 12.9697 27.127 13.3594L18.4062 27.0898C18.0166 27.7021 17.4785 27.999 16.8477 27.999Z" fill="#ffffff"/>
 </g>
</svg>
