<?xml version="1.0" encoding="UTF-8"?>
<!--Generator: Apple Native CoreSVG 175.5-->
<!DOCTYPE svg
PUBLIC "-//W3C//DTD SVG 1.1//EN"
       "http://www.w3.org/Graphics/SVG/1.1/DTD/svg11.dtd">
<svg version="1.1" xmlns="http://www.w3.org/2000/svg" xmlns:xlink="http://www.w3.org/1999/xlink" width="39.1514" height="37.8785">
 <g>
  <rect height="37.8785" opacity="0" width="39.1514" x="0" y="0"/>
  <path d="M32.3303 37.8509C32.7123 37.8509 33.051 37.5555 33.1141 37.1498C33.7067 32.6852 33.722 32.7293 38.4543 31.8292C38.856 31.7466 39.1514 31.4315 39.1514 31.0455C39.1514 30.6397 38.856 30.3247 38.4346 30.2577C33.781 29.5976 33.687 29.5197 33.1141 24.9608C33.0707 24.5354 32.732 24.24 32.3303 24.24C31.9049 24.24 31.5858 24.555 31.5425 24.9804C30.9891 29.4254 30.8952 29.3813 26.1866 30.2577C25.7808 30.3444 25.5051 30.6594 25.5051 31.0455C25.5051 31.4512 25.8005 31.7466 26.2653 31.8292C30.8952 32.572 30.9891 32.6655 31.5425 37.1105C31.5858 37.5359 31.9049 37.8509 32.3303 37.8509ZM12.1932 10.1897C12.4966 10.1897 12.7527 9.97303 12.8157 9.64997C13.4393 6.28173 13.3602 6.38083 16.7365 5.72915C17.0792 5.66216 17.2763 5.41011 17.2763 5.1067C17.2763 4.78365 17.0792 4.52762 16.7365 4.48026C13.3602 3.81296 13.4393 3.90802 12.8157 0.539773C12.7527 0.216715 12.4966 0 12.1932 0C11.8702 0 11.6298 0.216715 11.5668 0.539773C10.9432 3.90802 11.0222 3.81296 7.64596 4.48026C7.30325 4.52762 7.09054 4.78365 7.09054 5.1067C7.09054 5.41011 7.30325 5.66216 7.64596 5.72915C11.0222 6.38083 10.9432 6.28173 11.5668 9.64997C11.6298 9.97303 11.8702 10.1897 12.1932 10.1897Z" fill="#000000"/>
  <path d="M22.1825 24.9047C25.9731 24.9047 29.0262 21.8516 29.0262 18.061C29.0262 14.2861 25.9731 11.229 22.1825 11.229C18.3919 11.229 15.3389 14.2861 15.3389 18.061C15.3389 21.8516 18.3919 24.9047 22.1825 24.9047ZM4.91712 20.4805C7.58656 20.4805 9.81058 18.2605 9.81058 15.5674C9.81058 12.8743 7.58656 10.674 4.91712 10.674C2.21599 10.674 0 12.8703 0 15.5674C0 18.2645 2.21599 20.4805 4.91712 20.4805ZM12.1491 37.2567C15.0357 37.2567 17.3977 34.871 17.3977 31.9648C17.3977 29.1059 15.0317 26.7162 12.1491 26.7162C9.24292 26.7162 6.86119 29.1019 6.86119 31.9648C6.86119 34.871 9.24292 37.2567 12.1491 37.2567ZM38.4192 10.8487C38.4192 5.99341 34.4828 2.07277 29.6276 2.07277C25.3707 2.07277 21.8438 5.1153 21.0524 9.12816C21.4304 9.0848 21.8045 9.06514 22.1825 9.06514C27.1634 9.06514 31.19 13.0917 31.19 18.061C31.19 18.561 31.1507 19.0298 31.068 19.4749C35.2346 18.7978 38.4192 15.1962 38.4192 10.8487Z" fill="#000000"/>
 </g>
</svg>
