<?xml version="1.0" encoding="UTF-8"?>
<!--Generator: Apple Native CoreSVG 175.5-->
<!DOCTYPE svg
PUBLIC "-//W3C//DTD SVG 1.1//EN"
       "http://www.w3.org/Graphics/SVG/1.1/DTD/svg11.dtd">
<svg version="1.1" xmlns="http://www.w3.org/2000/svg" xmlns:xlink="http://www.w3.org/1999/xlink" width="28.2773" height="39.3916">
 <g>
  <rect height="39.3916" opacity="0" width="28.2773" x="0" y="0"/>
  <path d="M26.793 39.373C27.6094 39.373 28.2773 38.7051 28.2773 37.8887L28.2773 3.78516C28.2773 1.52148 26.7373 0 24.3994 0L3.87793 0C1.55859 0 0 1.52148 0 3.78516L0 37.8887C0 38.7051 0.667969 39.373 1.48438 39.373C2.31934 39.373 2.9873 38.7051 2.9873 37.8887L2.9873 3.9707C2.9873 3.37695 3.37695 2.9873 3.93359 2.9873L24.3438 2.9873C24.9004 2.9873 25.29 3.37695 25.29 3.9707L25.29 37.8887C25.29 38.7051 25.958 39.373 26.793 39.373Z" fill="#000000"/>
  <path d="M22.5068 38.7236C22.8408 38.7236 23.1191 38.4268 23.1191 38.0928L23.1191 5.77051C23.1191 5.41797 22.8408 5.13965 22.5068 5.13965L5.78906 5.13965C5.43652 5.13965 5.1582 5.41797 5.1582 5.77051L5.1582 38.0928C5.1582 38.4268 5.43652 38.7236 5.78906 38.7236ZM9.57422 23.8057C8.75781 23.8057 8.08984 23.1377 8.08984 22.3213C8.08984 21.4863 8.75781 20.8369 9.57422 20.8369C10.3906 20.8369 11.0586 21.4863 11.0586 22.3213C11.0586 23.1377 10.3906 23.8057 9.57422 23.8057Z" fill="#000000"/>
 </g>
</svg>
