<?xml version="1.0" encoding="UTF-8"?>
<!--Generator: Apple Native CoreSVG 175.5-->
<!DOCTYPE svg
PUBLIC "-//W3C//DTD SVG 1.1//EN"
       "http://www.w3.org/Graphics/SVG/1.1/DTD/svg11.dtd">
<svg version="1.1" xmlns="http://www.w3.org/2000/svg" xmlns:xlink="http://www.w3.org/1999/xlink" width="50.71" height="31.8213">
 <g>
  <rect height="31.8213" opacity="0" width="50.71" x="0" y="0"/>
  <path d="M25.3643 31.8213C40.3564 31.8213 50.71 19.7051 50.71 15.9199C50.71 12.1162 40.3379 0.0185547 25.3643 0.0185547C10.5762 0.0185547 0 12.1162 0 15.9199C0 19.7051 10.5576 31.8213 25.3643 31.8213ZM25.3643 28.8896C13.1367 28.8896 3.24707 18.5361 3.24707 15.9199C3.24707 13.7119 13.1367 2.9502 25.3643 2.9502C37.5361 2.9502 47.4629 13.7119 47.4629 15.9199C47.4629 18.5361 37.5361 28.8896 25.3643 28.8896ZM25.3643 26.3105C31.1348 26.3105 35.7734 21.5791 35.7734 15.9199C35.7734 10.1123 31.1348 5.5293 25.3643 5.5293C19.5566 5.5293 14.8994 10.1123 14.918 15.9199C14.9551 21.5791 19.5566 26.3105 25.3643 26.3105ZM25.3643 19.3711C23.4346 19.3711 21.876 17.8125 21.876 15.9199C21.876 14.0088 23.4346 12.4688 25.3643 12.4688C27.2754 12.4688 28.834 14.0088 28.834 15.9199C28.834 17.8125 27.2754 19.3711 25.3643 19.3711Z" fill="#ffffff"/>
 </g>
</svg>
