<?xml version="1.0" encoding="UTF-8"?>
<!--Generator: Apple Native CoreSVG 175.5-->
<!DOCTYPE svg
PUBLIC "-//W3C//DTD SVG 1.1//EN"
       "http://www.w3.org/Graphics/SVG/1.1/DTD/svg11.dtd">
<svg version="1.1" xmlns="http://www.w3.org/2000/svg" xmlns:xlink="http://www.w3.org/1999/xlink" width="37.9258" height="42.0264">
 <g>
  <rect height="42.0264" opacity="0" width="37.9258" x="0" y="0"/>
  <path d="M28.5186 27.0156L33.8994 30.0957C33.9922 30.1328 34.0479 30.1885 34.0479 30.2627C34.0479 30.3555 33.9922 30.4111 33.8994 30.4482L19.7793 38.5381C19.4824 38.7051 19.2227 38.7979 18.9629 38.7979C18.7031 38.7979 18.4434 38.7051 18.1279 38.5381L4.00781 30.4482C3.93359 30.4111 3.87793 30.3555 3.87793 30.2627C3.87793 30.1885 3.93359 30.1328 4.00781 30.0957L9.83398 26.7744L6.7168 25.0117L2.07812 27.7021C0.575195 28.5742 0 29.2607 0 30.2627C0 31.2832 0.575195 31.9697 2.07812 32.8418L16.6064 41.2656C17.4971 41.7852 18.2021 42.0264 18.9629 42.0264C19.7051 42.0264 20.4287 41.7852 21.3193 41.2656L35.8291 32.8418C37.332 31.9697 37.9258 31.2832 37.9258 30.2627C37.9258 29.2607 37.332 28.5742 35.8291 27.7021L31.4131 25.123ZM28.1104 18.2393L33.8994 21.542C33.9922 21.5791 34.0479 21.6348 34.0479 21.7275C34.0479 21.8203 33.9922 21.8574 33.8994 21.9131L19.7793 29.9844C19.4824 30.1514 19.2227 30.2441 18.9629 30.2441C18.7031 30.2441 18.4434 30.1514 18.1279 29.9844L4.00781 21.9131C3.93359 21.8574 3.87793 21.8203 3.87793 21.7275C3.87793 21.6348 3.93359 21.5791 4.00781 21.542L10.2607 17.9609L7.29199 16.1426L2.07812 19.1484C0.575195 20.0391 0 20.707 0 21.7275C0 22.748 0.575195 23.416 2.07812 24.2881L16.6064 32.7305C17.4971 33.25 18.2021 33.4912 18.9629 33.4912C19.7051 33.4912 20.4287 33.25 21.3193 32.7305L35.8291 24.2881C37.332 23.416 37.9258 22.748 37.9258 21.7275C37.9258 20.707 37.332 20.0391 35.8291 19.1484L30.9863 16.3281Z" fill="#000000"/>
  <path d="M18.9629 24.3438C19.7051 24.3438 20.4287 24.1025 21.3193 23.583L35.8291 15.1592C37.332 14.2871 37.9258 13.6006 37.9258 12.5801C37.9258 11.5781 37.332 10.8916 35.8291 10.0195L21.3193 1.5957C20.4287 1.07617 19.7051 0.834961 18.9629 0.834961C18.2021 0.834961 17.4971 1.07617 16.6064 1.5957L2.07812 10.0195C0.575195 10.8916 0 11.5781 0 12.5801C0 13.6006 0.575195 14.2871 2.07812 15.1592L16.6064 23.583C17.4971 24.1025 18.2021 24.3438 18.9629 24.3438Z" fill="#000000"/>
 </g>
</svg>
