<svg width="43" height="43" viewBox="0 0 43 43" fill="none" xmlns="http://www.w3.org/2000/svg">
<g clip-path="url(#clip0_387_76)">
<circle cx="21.5" cy="21.5" r="21.5" fill="#474747"/>
<g clip-path="url(#clip1_387_76)">
<path d="M24.4127 30.2166H18.576V22.6439C18.576 22.117 18.9267 21.7733 19.447 21.7733H23.553C24.0733 21.7733 24.4127 22.117 24.4127 22.6439V30.2166ZM11.5291 29.5292C11.5291 31.1216 12.4793 32.061 14.0742 32.061H28.9485C30.5434 32.061 31.4822 31.1216 31.4822 29.5292V20.4558L22.1844 12.5625C21.7545 12.1959 21.2455 12.2073 20.827 12.5625L11.5291 20.4558V29.5292ZM8 19.3102C8 19.7799 8.36196 20.2267 8.97277 20.2267C9.28948 20.2267 9.54964 20.0549 9.78718 19.8601L21.1098 10.2368C21.3586 10.0077 21.664 10.0077 21.9129 10.2368L33.2355 19.8601C33.4617 20.0549 33.7219 20.2267 34.0386 20.2267C34.5702 20.2267 35 19.8945 35 19.3446C35 19.0008 34.8869 18.7717 34.6493 18.5656L22.8743 8.54131C22.0373 7.81956 20.9966 7.81956 20.1483 8.54131L8.36196 18.5656C8.11311 18.7717 8 19.0467 8 19.3102ZM28.6431 14.1434L31.4822 16.5721V11.2794C31.4822 10.7753 31.1655 10.4545 30.6678 10.4545H29.4575C28.9711 10.4545 28.6431 10.7753 28.6431 11.2794V14.1434Z" fill="white" fill-opacity="0.85"/>
</g>
</g>
<defs>
<clipPath id="clip0_387_76">
<rect width="43" height="43" fill="white"/>
</clipPath>
<clipPath id="clip1_387_76">
<rect width="27" height="26" fill="white" transform="translate(8 8)"/>
</clipPath>
</defs>
</svg>
