<?xml version="1.0" encoding="UTF-8"?>
<svg width="1907px" height="1659px" viewBox="0 0 1907 1659" version="1.1" xmlns="http://www.w3.org/2000/svg" xmlns:xlink="http://www.w3.org/1999/xlink">
    <title>Artboard</title>
    <g id="Artboard" stroke="none" stroke-width="1" fill="none" fill-rule="evenodd">
        <g id="Logo" transform="translate(0.000000, 84.000000)" fill="#FFFFFF">
            <polygon id="Rectangle" points="720.996255 518.674981 775.725343 518.674981 775.725343 758.978527 720.996255 813.701116"></polygon>
            <polygon id="Rectangle" transform="translate(1176.675406, 661.429562) scale(-1, 1) translate(-1176.675406, -661.429562) " points="1149.31086 518.674981 1204.03995 518.674981 1204.03995 749.461554 1149.31086 804.184144"></polygon>
            <polygon id="Rectangle" points="939.912609 0 992.262172 0 992.262172 592.431514 966.087391 561.501355 939.912609 592.431514"></polygon>
            <polygon id="Rectangle" points="816.177278 249.820518 870.906367 249.820518 870.906367 661.429562 816.177278 716.152152"></polygon>
            <polygon id="Rectangle" transform="translate(1081.494382, 479.417471) scale(-1, 1) translate(-1081.494382, -479.417471) " points="1054.12984 249.820518 1108.85893 249.820518 1108.85893 655.129424 1054.12984 709.014423"></polygon>
            <rect id="Rectangle" x="1384.8839" y="1004.04056" width="61.8676654" height="157.03004"></rect>
            <rect id="Rectangle" x="602.019975" y="866.044463" width="61.8676654" height="295.026136"></rect>
            <rect id="Rectangle" x="1270.66667" y="866.044463" width="61.8676654" height="295.026136"></rect>
            <rect id="Rectangle" x="480.66417" y="1004.04056" width="61.8676654" height="157.03004"></rect>
            <path d="M966.087391,597.190001 L1234.97378,868.423706 L1201.66042,868.423706 L1201.66042,1153.93287 C1073.91636,1149.81667 978.735335,1148.23051 916.117353,1149.17438 C853.499372,1150.11826 790.838531,1154.08367 728.134831,1161.0706 L728.134831,868.423706 L699.580524,868.423706 L966.087391,597.190001 Z M966.087391,675.705021 L773.345818,866.044463 L773.345818,1123.00271 C837.593009,1119.83039 901.8402,1118.24422 966.087391,1118.24422 C1030.33458,1118.24422 1092.99542,1119.83039 1154.06991,1123.00271 L1154.06991,1123.00271 L1154.06991,866.044463 L966.087391,675.705021 Z" id="Path-5"></path>
            <rect id="Rectangle" x="939.912609" y="1020.69526" width="54.7290886" height="97.5489642"></rect>
            <path d="M966.087391,1113.48574 C1282.88159,1113.48574 1596.18579,1165.82908 1906,1270.51578 C1598.42949,1194.38 1285.12528,1156.31211 966.087391,1156.31211 C647.049497,1156.31211 325.020367,1194.38 0,1270.51578 C327.26406,1165.82908 649.29319,1113.48574 966.087391,1113.48574 Z" id="Path-4"></path>
            <text id="KODULA" font-family="Gilroy-ExtraBold, Gilroy" font-size="242.624105" font-weight="700">
                <tspan x="494.717428" y="1424">KODULA</tspan>
            </text>
        </g>
    </g>
</svg>