<?xml version="1.0" encoding="UTF-8"?>
<!--Generator: Apple Native CoreSVG 175.5-->
<!DOCTYPE svg
PUBLIC "-//W3C//DTD SVG 1.1//EN"
       "http://www.w3.org/Graphics/SVG/1.1/DTD/svg11.dtd">
<svg version="1.1" xmlns="http://www.w3.org/2000/svg" xmlns:xlink="http://www.w3.org/1999/xlink" width="24.8262" height="44.3271">
 <g>
  <rect height="44.3271" opacity="0" width="24.8262" x="0" y="0"/>
  <path d="M6.5498 37.7959L18.2949 37.7959C18.9072 37.7959 19.3711 37.3135 19.3711 36.7012C19.3711 36.1074 18.9072 35.625 18.2949 35.625L6.5498 35.625C5.9375 35.625 5.45508 36.1074 5.45508 36.7012C5.45508 37.3135 5.9375 37.7959 6.5498 37.7959ZM12.4131 43.1768C15.2891 43.1768 17.6826 41.7666 17.8682 39.6328L6.97656 39.6328C7.10645 41.7666 9.51855 43.1768 12.4131 43.1768Z" fill="#000000"/>
  <path d="M0 11.4297C0 18.5547 4.69434 20.3174 5.45508 32.6934C5.49219 33.3613 5.90039 33.7881 6.60547 33.7881L18.2207 33.7881C18.9443 33.7881 19.334 33.3613 19.3896 32.6934C20.1504 20.3174 24.8262 18.5547 24.8262 11.4297C24.8262 5.02832 19.3525 0 12.4131 0C5.47363 0 0 5.02832 0 11.4297Z" fill="#000000"/>
 </g>
</svg>
