<?xml version="1.0" encoding="UTF-8"?>
<!--Generator: Apple Native CoreSVG 175.5-->
<!DOCTYPE svg
PUBLIC "-//W3C//DTD SVG 1.1//EN"
       "http://www.w3.org/Graphics/SVG/1.1/DTD/svg11.dtd">
<svg version="1.1" xmlns="http://www.w3.org/2000/svg" xmlns:xlink="http://www.w3.org/1999/xlink" width="37.8516" height="37.8701">
 <g>
  <rect height="37.8701" opacity="0" width="37.8516" x="0" y="0"/>
  <path d="M18.9258 37.8516C29.2793 37.8516 37.8516 29.2607 37.8516 18.9258C37.8516 8.57227 29.2607 0 18.9072 0C8.57227 0 0 8.57227 0 18.9258C0 29.2607 8.59082 37.8516 18.9258 37.8516Z" fill="#ff453a"/>
  <path d="M12.6914 26.7188C11.8379 26.7188 11.1699 26.0322 11.1699 25.1787C11.1699 24.7705 11.3184 24.3809 11.6152 24.1025L16.7549 18.9443L11.6152 13.8047C11.3184 13.5078 11.1699 13.1367 11.1699 12.7285C11.1699 11.8564 11.8379 11.207 12.6914 11.207C13.1182 11.207 13.4521 11.3555 13.749 11.6338L18.9258 16.792L24.1396 11.6152C24.4551 11.2998 24.7891 11.1699 25.1973 11.1699C26.0508 11.1699 26.7373 11.8379 26.7373 12.6914C26.7373 13.1182 26.6074 13.4521 26.2734 13.7861L21.1152 18.9443L26.2549 24.084C26.5703 24.3623 26.7188 24.752 26.7188 25.1787C26.7188 26.0322 26.0322 26.7188 25.1602 26.7188C24.7334 26.7188 24.3438 26.5703 24.0654 26.2734L18.9258 21.1152L13.8047 26.2734C13.5078 26.5703 13.1182 26.7188 12.6914 26.7188Z" fill="#ffffff"/>
 </g>
</svg>
